<mxfile host="app.diagrams.net" modified="2023-10-25T09:29:05.237Z" agent="Mozilla/5.0 (X11; Linux x86_64; Chromium GOST) AppleWebKit/537.36 (KHTML, like Gecko) Chrome/110.0.0.0 Safari/537.36" version="22.0.8" etag="c0TwYtvKk_g5P9KxycGO" type="github">
  <diagram name="Страница — 1" id="SAb5eQocV6z7SgWIaTcl">
    <mxGraphModel>
      <root>
        <mxCell id="0" />
        <mxCell id="1" parent="0" />
      </root>
    </mxGraphModel>
  </diagram>
</mxfile>
